<svg width="24" height="24" viewBox="0 0 24 24" fill="none" xmlns="http://www.w3.org/2000/svg">
<path fill-rule="evenodd" clip-rule="evenodd" d="M2.25 6C2.25 5.20435 2.56607 4.44129 3.12868 3.87868C3.69129 3.31607 4.45435 3 5.25 3H18.75C19.5456 3 20.3087 3.31607 20.8713 3.87868C21.4339 4.44129 21.75 5.20435 21.75 6V18C21.75 18.7956 21.4339 19.5587 20.8713 20.1213C20.3087 20.6839 19.5456 21 18.75 21H5.25C4.45435 21 3.69129 20.6839 3.12868 20.1213C2.56607 19.5587 2.25 18.7956 2.25 18V6ZM6.22 6.97C6.36063 6.82955 6.55125 6.75066 6.75 6.75066C6.94875 6.75066 7.13937 6.82955 7.28 6.97L9.53 9.22C9.67045 9.36063 9.74934 9.55125 9.74934 9.75C9.74934 9.94875 9.67045 10.1394 9.53 10.28L7.28 12.53C7.13783 12.6625 6.94978 12.7346 6.75548 12.7312C6.56118 12.7277 6.37579 12.649 6.23838 12.5116C6.10097 12.3742 6.02225 12.1888 6.01883 11.9945C6.0154 11.8002 6.08752 11.6122 6.22 11.47L7.94 9.75L6.22 8.03C6.07955 7.88937 6.00066 7.69875 6.00066 7.5C6.00066 7.30125 6.07955 7.11063 6.22 6.97ZM10.5 11.25C10.3011 11.25 10.1103 11.329 9.96967 11.4697C9.82902 11.6103 9.75 11.8011 9.75 12C9.75 12.1989 9.82902 12.3897 9.96967 12.5303C10.1103 12.671 10.3011 12.75 10.5 12.75H13.5C13.6989 12.75 13.8897 12.671 14.0303 12.5303C14.171 12.3897 14.25 12.1989 14.25 12C14.25 11.8011 14.171 11.6103 14.0303 11.4697C13.8897 11.329 13.6989 11.25 13.5 11.25H10.5Z" fill="#333333"/>
</svg>
